<svg id="gamecard-launcher-default1.svg" xmlns="http://www.w3.org/2000/svg" width="202" height="126" viewBox="0 0 202 126">
  <defs>
    <style>
      .cls-1 {
        fill: #d7d4cc;
        fill-rule: evenodd;
      }
    </style>
  </defs>
  <path class="cls-1" d="M117.921,20.611l4.573-4.6,29.1,22.873L138.325,51.316Zm108.541-4.047,5.09,4.761L214.117,49.653,199.96,37.094ZM127.579,83.323l4.23,17.218-46.885,5.623-1.41-6.677ZM271.055,103l-1.763,5.974-50.41-6.325,5.287-19.327Zm3.877-49.547,1.058,5.271L228.752,78.052l-5.288-19.327ZM127.226,56.968l-5.287,16.867L74,52.751l2.115-5.974Zm6.346,49.9,13.4,15.11-25.029,13.7L117,130.762ZM200.9,123.383l13.748-14.408,19.742,28.815-4.583,4.217Z" transform="translate(-74 -16)"/>
</svg>
